<svg xmlns="http://www.w3.org/2000/svg" viewBox="0 0 100 100" width="100" height="100">
  <!-- الدائرة الخارجية الذهبية -->
  <circle cx="50" cy="50" r="45" fill="none" stroke="#D4AF37" stroke-width="2.5" opacity="0.8"/>
  
  <!-- أيقونة الوردة (تعبّر عن الجمال والنقاء) -->
  <g fill="#C5A059">
    <!-- البتلة الوسطى -->
    <path d="M50,25 C47,38 50,55 50,55 C50,55 53,38 50,25 Z"/>
    <!-- البتلات الجانبية -->
    <path d="M50,38 C42,32 37,42 43,48 C47,52 50,55 50,55 C50,55 46,45 50,38 Z"/>
    <path d="M50,38 C58,32 63,42 57,48 C53,52 50,55 50,55 C50,55 54,45 50,38 Z"/>
    <!-- البتلات السفلية -->
    <path d="M50,55 C40,50 35,60 45,63 C48,64 50,55 50,55 Z"/>
    <path d="M50,55 C60,50 65,60 55,63 C52,64 50,55 50,55 Z"/>
  </g>
  
  <!-- خط منحنٍ ناعم تحت الوردة -->
  <path d="M35,68 Q50,75 65,68" fill="none" stroke="#D4AF37" stroke-width="1.5" stroke-linecap="round"/>
</svg>
